{"title":"Lelicek in the Services of  Sherlock  Holmes (1932)","uid":4988661,"size":589646131,"categoryP":"video","categoryS":"movies","magnet":"?xt=urn:btih:1f404f13919d583adf5c04ca910eae2fb1c4ed19&amp;dn=Lelicek+in+the+Services+of++Sherlock++Holmes+%281932%29&amp;tr=udp%3A%2F%2Ftracker.openbittorrent.com%3A80&amp;tr=udp%3A%2F%2Fopen.demonii.com%3A1337&amp;tr=udp%3A%2F%2Ftracker.coppersurfer.tk%3A6969&amp;tr=udp%3A%2F%2Fexodus.desync.com%3A6969","seeders":0,"leechers":0,"uploader":null,"files":3,"time":1246915640,"description":"A classical Czech comedy from 1932 starring the King of Commedy Vlasta Burian.\nEnglish subtitles included. For any other subtitles go to &lt;a href=&quot;\nhttp://www.opensubtitles.org&quot; rel=&quot;nofollow&quot; target=&quot;_NEW&quot;&gt;\nhttp://www.opensubtitles.org&lt;/a&gt; and enter &quot;0168948&quot; (without the quotes)\nin the search field.\n\nGeneral\nComplete name                    : Lelicek ve sluzbach Sherlocka Holmesa.mp4\nFormat                           : MPEG-4\nFormat profile                   : Base Media / Version 2\nCodec ID                         : mp42\nFile size                        : 562 MiB\nDuration                         : 1h 27mn\nOverall bit rate                 : 898 Kbps\n\nVideo\nID                               : 2\nFormat                           : AVC\nFormat/Info                      : Advanced Video Codec\nFormat settings, CABAC           : Yes\nFormat settings, ReFrames        : 2 frames\nCodec ID                         : avc1\nCodec ID/Info                    : Advanced Video Coding\nDuration                         : 1h 27mn\nBit rate mode                    : Variable\nBit rate                         : 765 Kbps\nWidth                            : 720 pixels\nHeight                           : 480 pixels\nDisplay aspect ratio             : 1.500\nOriginal display aspect ratio    : 4/3\nFrame rate mode                  : Constant\nFrame rate                       : 29.970 fps\nStandard                         : NTSC\nResolution                       : 24 bits\nColorimetry                      : 4:2:0\nScan type                        : Progressive\nBits/(Pixel*Frame)               : 0.074\nStream size                      : 479 MiB (85%)\nLanguage                         : Czech\n\nAudio\nID                               : 1\nFormat                           : AAC\nFormat/Info                      : Advanced Audio Codec\nFormat version                   : Version 4\nFormat profile                   : LC\nFormat settings, SBR             : No\nCodec ID                         : 40\nDuration                         : 1h 27mn\nBit rate mode                    : Constant\nBit rate                         : 128 Kbps\nChannel(s)                       : 2 channels\nChannel positions                : L R\nSampling rate                    : 48.0 KHz\nResolution                       : 16 bits\nStream size                      : 80.2 MiB (14%)\nLanguage                         : Czech\n\n","torrent":{"xt":"urn:btih:1f404f13919d583adf5c04ca910eae2fb1c4ed19","amp;dn":"Lelicek+in+the+Services+of++Sherlock++Holmes+%281932%29","amp;tr":["udp%3A%2F%2Ftracker.openbittorrent.com%3A80","udp%3A%2F%2Fopen.demonii.com%3A1337","udp%3A%2F%2Ftracker.coppersurfer.tk%3A6969","udp%3A%2F%2Fexodus.desync.com%3A6969"],"infoHash":"1f404f13919d583adf5c04ca910eae2fb1c4ed19","infoHashBuffer":{"type":"Buffer","data":[31,64,79,19,145,157,88,58,223,92,4,202,145,14,174,47,177,196,237,25]},"announce":[],"urlList":[]}}